{"title":"The Adventures of Tintin 2011 DVD9rip Dutch Klam","uid":7055454,"size":1995507912,"categoryP":"video","categoryS":"movies","magnet":"?xt=urn:btih:cf11b76f1d4f5895f2f44cb817d4bb4e54b63422&amp;dn=The+Adventures+of+Tintin+2011+DVD9rip+Dutch+Klam&amp;tr=udp%3A%2F%2Ftracker.openbittorrent.com%3A80&amp;tr=udp%3A%2F%2Fopen.demonii.com%3A1337&amp;tr=udp%3A%2F%2Ftracker.coppersurfer.tk%3A6969&amp;tr=udp%3A%2F%2Fexodus.desync.com%3A6969","seeders":0,"leechers":1,"uploader":"Klambake","files":-1,"time":1330093487,"description":"With: Jamie Bell, Andy Serkis and Daniel Craig\n\nNederlands gesproken,\nDe nieuwsgierige reporter Kuifje en zijn trouwe hondje Bobbie ontdekken dat een model van het prachtige oude zeilschip \\\\\\\\\\\\\\'De Eenhoorn\\\\\\\\\\\\\\' een geheim met zich meedraagt. Meegevoerd in een eeuwenoud mysterie, krijgt hij het aan de stok met de boosaardige Sacharin, die weet dat Kuifje een belangrijke aanwijzing bezit naar de grote schat van de snode piraat Scharlaken Rackham. Geholpen door de moedige Bobbie, de onstuimige kapitein Haddock en de stuntelige detectives Jansen en Janssen, reist Kuifje de halve wereld af, constant op de hielen gezeten door de vijand. Hij moet slimmer en sneller zijn dan de rest om het Geheim van de Eenhoorn te ontrafelen...\n\nDutch spoken,\nIntrepid reporter Tintin and Captain Haddock set off on a treasure hunt for a sunken ship commanded by Haddock\\\\\\\\\\\\\\'s ancestor. \n\n------------------------ Dutch Friends ------------------------\n---------------------------------------------------------------\n- Bezoek ook eens mijn vrienden op: &lt;a href=&quot; http://www.Film-Test.nl&quot; rel=&quot;nofollow&quot; target=&quot;_NEW&quot;&gt; http://www.Film-Test.nl&lt;/a&gt; --\n----- voor mijn Nederlandse Sync. ondertitels ---- en meer ----\n------- http://www.Film-Test.nl ---- voor Films en meer -------\n---------------------------------------------------------------\n\nGeneral\nComplete name                    : G:\\\\\\\\\\\\\\\\Klambake\\\\\\\\\\\\\\\\The Adventures of Tintin\\\\\\\\\\\\\\\\The Adventures of Tintin.avi\nFormat                           : AVI\nFormat/Info                      : Audio Video Interleave\nFile size                        : 1.86 GiB\nDuration                         : 1h 42mn\nOverall bit rate                 : 2 595 Kbps\n\nVideo\nID                               : 0\nFormat                           : MPEG-4 Visual\nFormat profile                   : Simple@L3\nFormat settings, BVOP            : No\nFormat settings, QPel            : No\nFormat settings, GMC             : No warppoints\nFormat settings, Matrix          : Default (H.263)\nCodec ID                         : XVID\nCodec ID/Hint                    : XviD\nDuration                         : 1h 42mn\nBit rate                         : 2 200 Kbps\nWidth                            : 720 pixels\nHeight                           : 304 pixels\nDisplay aspect ratio             : 2.35:1\nFrame rate                       : 25.000 fps\nColor space                      : YUV\nChroma subsampling               : 4:2:0\nBit depth                        : 8 bits\nScan type                        : Progressive\nCompression mode                 : Lossy\nBits/(Pixel*Frame)               : 0.402\nStream size                      : 1.58 GiB (85%)\nWriting library                  : XviD 1.1.2 (UTC 2006-11-01)\n\nAudio\nID                               : 1\nFormat                           : AC-3\nFormat/Info                      : Audio Coding 3\nMode extension                   : CM (complete main)\nCodec ID                         : 2000\nDuration                         : 1h 42mn\nBit rate mode                    : Constant\nBit rate                         : 384 Kbps\nChannel(s)                       : 6 channels\nChannel positions                : Front: L C R, Side: L R, LFE\nSampling rate                    : 48.0 KHz\nBit depth                        : 16 bits\nCompression mode                 : Lossy\nStream size                      : 282 MiB (15%)\nAlignment                        : Aligned on interleaves\nInterleave, duration             : 32 ms (0.80 video frame)\n","torrent":{"xt":"urn:btih:cf11b76f1d4f5895f2f44cb817d4bb4e54b63422","amp;dn":"The+Adventures+of+Tintin+2011+DVD9rip+Dutch+Klam","amp;tr":["udp%3A%2F%2Ftracker.openbittorrent.com%3A80","udp%3A%2F%2Fopen.demonii.com%3A1337","udp%3A%2F%2Ftracker.coppersurfer.tk%3A6969","udp%3A%2F%2Fexodus.desync.com%3A6969"],"infoHash":"cf11b76f1d4f5895f2f44cb817d4bb4e54b63422","infoHashBuffer":{"type":"Buffer","data":[207,17,183,111,29,79,88,149,242,244,76,184,23,212,187,78,84,182,52,34]},"announce":[],"urlList":[]}}